<svg width="512" height="512" viewBox="0 0 512 512" fill="none" xmlns="http://www.w3.org/2000/svg">
<path fill-rule="evenodd" clip-rule="evenodd" d="M162.906 18.1705C152.683 20.2455 142.082 24.3275 133.573 29.4635C97.2344 51.3995 81.4004 94.5795 94.7984 135.202C99.9574 150.843 111.676 167.217 124.925 177.295L130.048 181.193L126.727 183.69C109.717 196.476 98.1044 213.962 92.1904 235.693C89.6924 244.869 89.7754 267.483 92.3414 277.193C97.8234 297.934 109.933 316.072 126.727 328.696L130.048 331.193L124.925 335.091C117.085 341.055 106.767 352.812 101.884 361.345C81.7324 396.568 87.6474 440.855 116.296 469.237C132.495 485.286 152.446 494.164 175.097 495.402C201.26 496.832 224.36 488.164 243.241 469.83C255.026 458.386 262.027 447.097 267.514 430.693L270.357 422.193L270.691 372.943C270.875 345.856 271.295 323.693 271.623 323.693C271.952 323.693 274.513 325.455 277.314 327.609C291.509 338.527 308.428 344.535 327.406 345.398C347.28 346.302 362.804 342.633 378.808 333.251C399.313 321.229 413.854 301.562 420.622 276.693C423.12 267.517 423.037 244.903 420.471 235.193C415.008 214.526 403.093 196.627 386.144 183.625L382.881 181.123L387.946 177.26C395.654 171.382 406.045 159.574 410.756 151.34C424.872 126.669 426.616 97.6185 415.588 70.8575C407.32 50.7975 386.97 30.8165 367.17 23.3175C350.069 16.8405 357.14 17.2505 258.906 17.0415C188.133 16.8905 168.046 17.1265 162.906 18.1705ZM241.406 166.193H205.406C171.071 166.193 169.082 166.091 162.406 163.988C119.869 150.587 105.51 98.2075 135.494 65.8205C142.947 57.7715 148.779 53.7815 158.359 50.1745C168.651 46.3015 173.434 45.9115 208.906 46.0585L241.406 46.1935V166.193ZM351.406 49.0345C362.619 52.9175 369.068 57.0625 376.902 65.4215C388.022 77.2865 393.256 90.7555 393.136 107.193C392.947 133.009 375.615 156.046 350.406 163.988C343.73 166.091 341.741 166.193 307.406 166.193H271.406L271.147 107.193C271.004 74.7435 271.117 47.5925 271.398 46.8565C271.816 45.7665 278.487 45.5885 307.658 45.8925L343.406 46.2635L351.406 49.0345ZM241.406 316.193H206.406C167.73 316.193 165.661 315.951 152.906 309.94C147.14 307.222 143.534 304.531 137.308 298.299C124.965 285.944 119.569 272.782 119.637 255.193C119.732 230.644 136.084 207.806 159.444 199.595C168.687 196.347 174.702 195.916 208.906 196.058L241.406 196.193V316.193ZM347.906 197.881C357.839 200.207 367.028 205.602 375.504 214.087C387.559 226.153 393.179 239.541 393.179 256.193C393.179 272.845 387.559 286.233 375.504 298.299C362.839 310.977 350.114 316.155 331.906 316.039C309.087 315.894 291.722 306.039 279.611 286.359C268.586 268.444 268.586 243.942 279.611 226.027C294.378 202.03 320.191 191.393 347.906 197.881ZM241.405 380.693C241.404 413.487 241.294 415.539 239.197 422.193C233.481 440.322 219.847 455.054 202.597 461.74C179.08 470.854 154.706 465.695 137.009 447.856C124.985 435.737 119.557 422.394 119.652 405.193C119.809 376.844 141.348 351.479 169.253 346.781C172.087 346.304 189.481 345.977 207.906 346.053L241.406 346.193L241.405 380.693Z" fill="white"/>
</svg>
