<svg width="514" height="514" viewBox="0 0 514 514" fill="none" xmlns="http://www.w3.org/2000/svg">
<rect x="1" y="1" width="512" height="512" rx="107" fill="black" stroke="white"/>
<path d="M194 283H278.006" stroke="#1D1D1D" stroke-width="20" stroke-linecap="round"/>
<path d="M1 108C1 48.9055 48.9055 1 108 1H406C465.094 1 513 48.9055 513 108V121H1V108Z" fill="#1D1D1D"/>
<path d="M0.5 108C0.5 48.6294 48.6294 0.5 108 0.5H406C465.371 0.5 513.5 48.6294 513.5 108H512.5C512.5 49.1817 464.818 1.5 406 1.5H108C49.1817 1.5 1.5 49.1817 1.5 108H0.5ZM513 121H1H513ZM0.5 121V108C0.5 48.6294 48.6294 0.5 108 0.5V1.5C49.1817 1.5 1.5 49.1817 1.5 108V121H0.5ZM406 0.5C465.371 0.5 513.5 48.6294 513.5 108V121H512.5V108C512.5 49.1817 464.818 1.5 406 1.5V0.5Z" fill="white"/>
<path d="M71 158L187.103 217.644C189.994 219.129 190.001 223.259 187.115 224.753L74.6777 283" stroke="#1D1D1D" stroke-width="20" stroke-linecap="round"/>
</svg>
