<svg width="512" height="512" viewBox="0 0 512 512" fill="none" xmlns="http://www.w3.org/2000/svg">
<path d="M143.225 92.6787C145.345 91.6202 167.581 91.0908 240.097 92.1494L302.032 265.779C335.911 361.593 363.967 441.527 363.967 443.645C364.494 446.291 346.495 447.879 285.093 447.879L255.978 362.652L129.461 365.828L102.464 447.879H66.4668C46.8817 447.879 31.0017 446.291 31 443.645C31 441.527 55.8802 367.946 86.583 279.543C117.286 191.669 141.636 114.383 141.106 107.501C140.577 100.619 141.637 93.7374 143.225 92.6787ZM475.662 447.879H401.552V177.906H475.662V447.879ZM195.102 165.201C193.513 163.613 183.455 190.61 172.339 225.548C161.752 260.484 152.754 290.127 152.753 291.718C152.753 293.306 171.281 294.365 193.514 294.365L234.804 293.836C206.219 196.965 196.69 166.79 195.102 165.201ZM420.079 67.7988C425.902 64.6228 437.548 63.035 446.547 64.623C455.546 66.2111 466.662 72.5637 471.956 78.916C477.25 85.2684 481.484 97.4434 480.955 106.442C480.955 115.441 475.662 127.616 468.78 134.498C460.84 142.968 451.311 146.145 437.548 146.145C421.667 146.145 414.785 142.968 406.845 131.322C400.493 123.382 396.258 111.207 396.258 103.796C396.258 96.3849 399.434 86.856 403.14 82.0918C406.845 77.8569 414.256 70.9749 420.079 67.7988Z" fill="white"/>
<path d="M143.225 92.6787L143.001 92.2314L142.973 92.2453L142.947 92.2627L143.225 92.6787ZM240.097 92.1494L240.568 91.9814L240.451 91.6545L240.104 91.6495L240.097 92.1494ZM302.032 265.779L302.504 265.613L302.503 265.611L302.032 265.779ZM363.967 443.645H363.467V443.694L363.476 443.742L363.967 443.645ZM285.093 447.879L284.62 448.041L284.735 448.379L285.093 448.379L285.093 447.879ZM255.978 362.652L256.451 362.491L256.332 362.143L255.965 362.153L255.978 362.652ZM129.461 365.828L129.448 365.328L129.096 365.337L128.986 365.672L129.461 365.828ZM102.464 447.879V448.379H102.826L102.939 448.035L102.464 447.879ZM66.4668 447.879L66.4668 448.379H66.4668V447.879ZM31 443.645H30.5L30.5 443.645L31 443.645ZM86.583 279.543L86.111 279.378L86.1107 279.379L86.583 279.543ZM141.106 107.501L140.608 107.539L140.608 107.539L141.106 107.501ZM475.662 447.879V448.379H476.162V447.879H475.662ZM401.552 447.879H401.052V448.379H401.552V447.879ZM401.552 177.906V177.406H401.052V177.906H401.552ZM475.662 177.906H476.162V177.406H475.662V177.906ZM195.102 165.201L195.455 164.848L195.455 164.848L195.102 165.201ZM172.339 225.548L171.862 225.396L171.86 225.403L172.339 225.548ZM152.753 291.718L152.253 291.717V291.718H152.753ZM193.514 294.365V294.865L193.52 294.865L193.514 294.365ZM234.804 293.836L234.81 294.336L235.47 294.327L235.283 293.694L234.804 293.836ZM420.079 67.7988L419.84 67.3599L419.84 67.3599L420.079 67.7988ZM446.547 64.623L446.634 64.1307L446.634 64.1307L446.547 64.623ZM471.956 78.916L472.34 78.5959L472.34 78.5959L471.956 78.916ZM480.955 106.442L480.456 106.413L480.455 106.428L480.455 106.442L480.955 106.442ZM468.78 134.498L468.427 134.145L468.421 134.15L468.416 134.156L468.78 134.498ZM437.548 146.145L437.548 146.645L437.548 146.645L437.548 146.145ZM406.845 131.322L407.258 131.041L407.247 131.025L407.235 131.01L406.845 131.322ZM396.258 103.796L395.758 103.796L395.758 103.796L396.258 103.796ZM403.14 82.0918L402.763 81.7625L402.754 81.7734L402.745 81.7848L403.14 82.0918ZM143.225 92.6787L143.448 93.1261C143.521 93.0897 143.68 93.0359 143.967 92.9762C144.245 92.9185 144.612 92.861 145.081 92.8051C146.017 92.6933 147.33 92.5906 149.084 92.4999C152.589 92.3185 157.825 92.1863 165.267 92.1201C180.149 91.9878 203.832 92.1201 240.089 92.6494L240.097 92.1494L240.104 91.6495C203.845 91.1201 180.152 90.9878 165.258 91.1201C157.811 91.1863 152.559 91.3187 149.032 91.5012C147.27 91.5924 145.931 91.6965 144.962 91.8122C144.478 91.8699 144.08 91.9314 143.764 91.9972C143.456 92.061 143.193 92.1354 143.001 92.2314L143.225 92.6787ZM240.097 92.1494L239.626 92.3174L301.561 265.947L302.032 265.779L302.503 265.611L240.568 91.9814L240.097 92.1494ZM302.032 265.779L301.561 265.946C318.5 313.853 333.984 357.789 345.232 390.013C350.856 406.125 355.421 419.308 358.58 428.595C360.16 433.238 361.387 436.906 362.219 439.478C362.636 440.764 362.952 441.773 363.164 442.492C363.27 442.852 363.349 443.135 363.4 443.341C363.458 443.574 363.467 443.652 363.467 443.645H363.967H364.467C364.467 443.505 364.42 443.299 364.37 443.099C364.314 442.873 364.231 442.575 364.123 442.209C363.907 441.478 363.588 440.459 363.171 439.17C362.336 436.591 361.107 432.918 359.527 428.273C356.367 418.982 351.801 405.796 346.176 389.683C334.927 357.457 319.443 313.52 302.504 265.613L302.032 265.779ZM363.967 443.645L363.476 443.742C363.478 443.751 363.486 443.77 363.443 443.828C363.387 443.902 363.262 444.013 363.014 444.144C362.518 444.406 361.676 444.674 360.401 444.933C357.864 445.446 353.774 445.891 347.723 446.255C335.63 446.982 315.793 447.379 285.093 447.379L285.093 447.879L285.093 448.379C315.795 448.379 335.658 447.982 347.783 447.253C353.842 446.889 357.99 446.441 360.599 445.913C361.897 445.65 362.854 445.36 363.481 445.028C363.794 444.863 364.062 444.668 364.242 444.428C364.434 444.173 364.521 443.869 364.457 443.547L363.967 443.645ZM285.093 447.879L285.566 447.717L256.451 362.491L255.978 362.652L255.504 362.814L284.62 448.041L285.093 447.879ZM255.978 362.652L255.965 362.153L129.448 365.328L129.461 365.828L129.473 366.328L255.99 363.152L255.978 362.652ZM129.461 365.828L128.986 365.672L101.989 447.723L102.464 447.879L102.939 448.035L129.936 365.984L129.461 365.828ZM102.464 447.879V447.379H66.4668V447.879V448.379H102.464V447.879ZM66.4668 447.879L66.4668 447.379C56.6845 447.379 47.8387 446.982 41.446 446.257C38.2457 445.894 35.6817 445.452 33.9276 444.942C33.0468 444.687 32.4016 444.423 31.987 444.163C31.5489 443.888 31.5 443.704 31.5 443.644L31 443.645L30.5 443.645C30.5004 444.247 30.9481 444.691 31.4553 445.01C31.986 445.343 32.7347 445.637 33.6489 445.903C35.4848 446.436 38.1152 446.886 41.3333 447.251C47.7773 447.982 56.664 448.379 66.4668 448.379L66.4668 447.879ZM31 443.645H31.5C31.5 443.647 31.508 443.569 31.559 443.353C31.6047 443.159 31.6743 442.894 31.7684 442.559C31.9562 441.889 32.2369 440.952 32.6066 439.759C33.3457 437.376 34.4365 433.986 35.8424 429.698C38.6539 421.123 42.7228 408.966 47.7515 394.111C57.8089 364.402 71.7042 323.908 87.0553 279.707L86.583 279.543L86.1107 279.379C70.759 323.581 56.8628 364.079 46.8043 393.79C41.7752 408.646 37.7051 420.807 34.8921 429.386C33.4858 433.676 32.393 437.072 31.6515 439.463C31.2809 440.658 30.997 441.606 30.8055 442.289C30.7098 442.63 30.636 442.91 30.5856 443.124C30.5405 443.315 30.5 443.51 30.5 443.645H31ZM86.583 279.543L87.055 279.708C102.408 235.767 116.173 194.473 126.034 163.301C130.964 147.715 134.919 134.658 137.609 125.064C138.954 120.267 139.985 116.332 140.662 113.377C141.001 111.9 141.253 110.662 141.412 109.682C141.569 108.715 141.643 107.958 141.605 107.463L141.106 107.501L140.608 107.539C140.636 107.904 140.582 108.558 140.425 109.522C140.271 110.472 140.024 111.687 139.688 113.153C139.015 116.085 137.99 120.004 136.647 124.794C133.961 134.372 130.009 147.418 125.08 162.999C115.223 194.16 101.461 235.445 86.111 279.378L86.583 279.543ZM141.106 107.501L141.605 107.463C141.343 104.056 141.475 100.653 141.866 97.9787C142.062 96.6406 142.321 95.4996 142.621 94.6382C142.772 94.2075 142.928 93.858 143.086 93.5926C143.246 93.3223 143.39 93.1691 143.502 93.0947L143.225 92.6787L142.947 92.2627C142.662 92.453 142.425 92.7465 142.226 93.082C142.024 93.4226 141.841 93.8381 141.677 94.309C141.349 95.2508 141.078 96.4589 140.877 97.8338C140.474 100.586 140.341 104.064 140.608 107.539L141.106 107.501ZM475.662 447.879V447.379H401.552V447.879V448.379H475.662V447.879ZM401.552 447.879H402.052V177.906H401.552H401.052V447.879H401.552ZM401.552 177.906V178.406H475.662V177.906V177.406H401.552V177.906ZM475.662 177.906H475.162V447.879H475.662H476.162V177.906H475.662ZM195.102 165.201L195.455 164.848C195.307 164.7 195.107 164.619 194.886 164.637C194.692 164.654 194.531 164.743 194.412 164.829C194.176 165.001 193.942 165.286 193.711 165.623C193.238 166.312 192.658 167.404 191.986 168.835C190.637 171.707 188.878 176.039 186.825 181.502C182.719 192.43 177.422 207.923 171.862 225.396L172.339 225.548L172.815 225.699C178.372 208.235 183.663 192.76 187.761 181.853C189.812 176.398 191.559 172.095 192.891 169.26C193.559 167.837 194.111 166.807 194.536 166.188C194.754 165.87 194.909 165.704 195 165.638C195.045 165.605 195.032 165.628 194.97 165.634C194.881 165.641 194.797 165.603 194.748 165.555L195.102 165.201ZM172.339 225.548L171.86 225.403C166.567 242.87 161.671 259.016 158.097 270.994C156.31 276.983 154.854 281.932 153.844 285.484C153.339 287.259 152.945 288.689 152.677 289.725C152.542 290.243 152.439 290.667 152.368 290.989C152.303 291.289 152.253 291.554 152.253 291.717L152.753 291.718L153.253 291.718C153.253 291.719 153.253 291.708 153.256 291.679C153.259 291.652 153.265 291.616 153.272 291.57C153.288 291.477 153.312 291.356 153.345 291.203C153.412 290.899 153.512 290.489 153.645 289.976C153.91 288.951 154.302 287.53 154.806 285.757C155.814 282.212 157.269 277.268 159.055 271.28C162.628 259.305 167.524 243.161 172.817 225.693L172.339 225.548ZM152.753 291.718H152.253C152.253 292.078 152.511 292.305 152.687 292.424C152.884 292.557 153.145 292.667 153.436 292.762C154.026 292.956 154.869 293.133 155.919 293.296C158.026 293.622 161.055 293.904 164.765 294.136C172.19 294.6 182.391 294.865 193.514 294.865V294.365V293.865C182.403 293.865 172.224 293.601 164.827 293.138C161.126 292.907 158.133 292.626 156.072 292.307C155.037 292.147 154.259 291.98 153.749 291.813C153.49 291.727 153.331 291.652 153.246 291.594C153.14 291.523 153.253 291.556 153.253 291.718H152.753ZM193.514 294.365L193.52 294.865L234.81 294.336L234.804 293.836L234.797 293.336L193.507 293.865L193.514 294.365ZM234.804 293.836L235.283 293.694C220.991 245.259 211.462 213.495 205.307 193.64C202.229 183.713 199.994 176.76 198.428 172.186C197.646 169.901 197.028 168.204 196.555 167.025C196.319 166.437 196.116 165.97 195.943 165.622C195.781 165.294 195.62 165.012 195.455 164.848L195.102 165.201L194.748 165.555C194.782 165.589 194.881 165.729 195.047 166.065C195.203 166.38 195.395 166.82 195.627 167.398C196.091 168.552 196.702 170.23 197.482 172.51C199.043 177.069 201.275 184.012 204.351 193.936C210.504 213.784 220.032 245.542 234.324 293.977L234.804 293.836ZM420.079 67.7988L420.319 68.2378C423.153 66.6915 427.452 65.512 432.184 64.9205C436.909 64.33 442.019 64.3318 446.46 65.1154L446.547 64.623L446.634 64.1307C442.076 63.3263 436.863 63.3279 432.06 63.9283C427.264 64.5277 422.828 65.7301 419.84 67.3599L420.079 67.7988ZM446.547 64.623L446.46 65.1154C450.89 65.8972 455.865 67.8576 460.395 70.4182C464.927 72.9798 468.976 76.1205 471.572 79.2361L471.956 78.916L472.34 78.5959C469.643 75.3592 465.487 72.1475 460.887 69.5477C456.286 66.9469 451.203 64.937 446.634 64.1307L446.547 64.623ZM471.956 78.916L471.572 79.2361C474.168 82.3509 476.524 86.9219 478.165 91.8448C479.806 96.7671 480.716 101.995 480.456 106.413L480.955 106.442L481.454 106.472C481.724 101.891 480.781 96.5316 479.113 91.5286C477.446 86.5261 475.038 81.8335 472.34 78.5959L471.956 78.916ZM480.955 106.442L480.455 106.442C480.455 110.854 479.155 116.078 476.99 121.065C474.825 126.05 471.814 130.757 468.427 134.145L468.78 134.498L469.134 134.852C472.628 131.357 475.704 126.536 477.907 121.463C480.109 116.392 481.455 111.03 481.455 106.442L480.955 106.442ZM468.78 134.498L468.416 134.156C460.597 142.495 451.22 145.645 437.548 145.645L437.548 146.145L437.548 146.645C451.403 146.645 461.082 143.44 469.145 134.84L468.78 134.498ZM437.548 146.145V145.645C429.632 145.645 424.031 144.851 419.435 142.65C414.848 140.453 411.203 136.827 407.258 131.041L406.845 131.322L406.432 131.604C410.427 137.464 414.193 141.248 419.003 143.552C423.802 145.85 429.583 146.645 437.548 146.645V146.145ZM406.845 131.322L407.235 131.01C404.099 127.09 401.476 122.111 399.638 117.186C397.797 112.256 396.758 107.421 396.758 103.796L396.258 103.796L395.758 103.796C395.758 107.582 396.836 112.54 398.701 117.535C400.568 122.536 403.238 127.614 406.454 131.635L406.845 131.322ZM396.258 103.796H396.758C396.758 100.155 397.54 95.9724 398.785 92.1046C400.032 88.2331 401.73 84.719 403.534 82.3988L403.14 82.0918L402.745 81.7848C400.844 84.2288 399.101 87.8612 397.833 91.798C396.564 95.7385 395.758 100.026 395.758 103.796H396.258ZM403.14 82.0918L403.516 82.4211C407.203 78.2078 414.569 71.3741 420.319 68.2378L420.079 67.7988L419.84 67.3599C413.944 70.5758 406.488 77.506 402.763 81.7625L403.14 82.0918Z" fill="white"/>
</svg>
