<svg width="512" height="512" viewBox="0 0 512 512" fill="none" xmlns="http://www.w3.org/2000/svg">
<path d="M190.155 87.0028C191.681 86.8861 193.912 90.2875 204.005 110.337L208.935 109.751C211.752 109.399 219.264 108.578 225.719 107.992C232.174 107.406 245.32 106.936 255.062 106.936C264.686 106.936 277.948 107.406 284.403 107.992C290.859 108.578 298.488 109.399 306.704 110.571L311.986 99.7841C314.92 93.8052 317.971 88.5293 318.676 87.9413C319.615 87.2378 325.132 87.8232 332.761 89.3476C339.803 90.7546 352.596 93.8042 361.281 96.2665C369.967 98.7289 382.174 102.715 388.277 105.06C394.381 107.406 402.362 110.571 405.883 112.213C411.869 114.91 412.925 115.965 420.789 128.277C425.367 135.43 432.057 146.687 435.695 153.136C439.216 159.585 445.084 171.427 448.723 179.517C452.361 187.608 457.643 200.507 460.46 208.246C463.159 215.985 467.385 229.704 469.732 238.732C471.962 247.761 474.896 261.715 476.188 269.806C477.479 277.896 479.122 291.381 479.826 299.706C480.413 308.031 481 321.516 481 329.606C480.883 337.697 480.413 349.539 479.943 355.988C479.004 367.01 478.77 367.831 475.601 370.411C473.722 371.936 465.859 377.095 458.112 381.902C450.366 386.71 436.869 394.331 428.184 398.787C419.498 403.125 407.526 408.754 401.774 411.1C396.023 413.562 385.46 417.548 378.301 420.011C368.09 423.528 365.037 424.232 363.746 423.059C362.924 422.238 359.404 417.43 356 412.271C352.596 407.112 347.901 399.491 345.554 395.269C343.324 391.049 341.329 387.18 341.329 386.476C341.329 385.772 346.258 383.309 352.127 380.729C358.113 378.267 366.329 374.398 370.319 372.287C374.425 370.06 377.711 368.068 377.714 367.715C377.714 367.363 376.306 365.838 374.428 364.196C372.667 362.672 370.319 361.266 369.146 361.266C368.089 361.266 363.629 362.79 359.169 364.666C354.826 366.542 346.258 369.708 340.155 371.818C334.052 373.812 323.723 376.743 317.268 378.267C310.812 379.792 299.78 382.02 292.62 383.075C283.7 384.482 272.314 385.068 255.647 385.068C238.981 385.068 227.596 384.482 218.676 383.075C211.516 382.02 199.427 379.558 191.681 377.682C183.934 375.805 171.845 372.288 164.686 369.708C157.526 367.128 149.428 364.08 146.493 362.907C141.329 360.914 141.211 360.913 137.338 363.376C135.343 364.783 133.7 366.658 133.935 367.479C134.169 368.183 136.986 370.294 140.155 372.053C143.324 373.812 150.953 377.447 157.057 380.143C163.159 382.84 168.675 385.302 169.146 385.771C169.615 386.123 167.855 390.462 165.155 395.269C162.456 400.077 157.174 408.637 153.301 414.383C146.963 423.763 146.258 424.583 143.207 423.88C141.446 423.528 132.878 420.597 124.192 417.313C115.507 414.147 101.422 408.167 93.0889 404.181C84.6382 400.194 72.549 393.862 66.0938 389.993C59.6385 386.241 49.6623 380.027 43.9111 376.04C38.1601 372.053 32.9954 367.832 32.291 366.542C31.4694 365.018 31 352.706 31 331.365C31 306.624 31.4693 294.781 32.9951 283.29C34.1688 274.965 36.3988 261.714 38.042 253.976C39.6852 246.237 42.9721 233.573 45.2021 225.834C47.4322 218.095 51.6576 205.666 54.5918 198.279C57.526 190.892 62.808 178.698 66.3291 171.31C69.8502 163.923 75.3658 153.018 78.7695 147.272C82.0559 141.527 87.9246 131.795 91.7979 125.697C97.3141 117.372 99.8966 114.324 103.065 113.034C105.295 112.096 113.277 108.929 120.671 106.115C128.065 103.301 140.507 99.0803 148.254 96.8525C156 94.5073 168.089 91.4588 175.249 89.9345C182.409 88.4102 189.099 87.0028 190.155 87.0028ZM184.052 228.18C180.061 227.828 175.131 228.296 171.141 229.469C167.62 230.407 163.159 232.283 161.164 233.456C159.169 234.629 155.413 237.912 152.714 240.726C150.014 243.54 146.259 248.934 144.498 252.804C141.564 259.135 141.211 261.011 141.211 272.736C141.211 284.462 141.564 286.221 144.498 292.67C146.493 296.657 150.484 302.285 153.888 305.568C157.878 309.438 162.338 312.486 166.681 314.128C171.258 315.887 176.071 316.708 181.47 316.708C187.69 316.708 190.742 316.004 196.376 313.308C200.484 311.431 205.648 307.679 208.699 304.278C211.633 301.112 215.272 296.188 216.681 293.257C218.089 290.325 219.849 284.345 220.671 279.772C221.727 273.441 221.61 269.805 220.554 263.942C219.732 259.721 217.854 253.975 216.328 251.044C214.802 248.112 211.634 243.422 209.052 240.608C206.47 237.677 201.657 234.159 197.549 232.166C193.676 230.29 187.69 228.531 184.052 228.18ZM330.179 227.71C328.888 227.827 325.718 228.297 323.136 228.766C320.554 229.235 316.563 230.642 314.333 231.697C312.103 232.87 308.464 235.215 306.234 236.856C304.004 238.498 300.132 243.071 297.667 246.94C294.615 251.63 292.502 256.907 291.328 262.769C289.685 270.039 289.568 272.972 290.742 279.538C291.446 283.876 293.207 289.857 294.732 292.905C296.141 295.954 299.428 300.878 302.127 303.809C304.826 306.741 309.756 310.727 313.277 312.603C319.028 315.769 320.554 316.122 330.766 316.122C340.977 316.122 342.503 315.769 348.254 312.603C351.658 310.727 356.704 306.741 359.286 303.809C361.986 300.878 365.272 295.953 366.798 292.67C368.206 289.504 369.967 283.642 370.671 279.772C371.375 274.965 371.375 270.274 370.554 265.115C369.85 260.894 368.559 255.618 367.62 253.39C366.564 251.162 364.099 246.94 361.986 244.009C359.874 241.077 355.296 236.857 351.774 234.629C348.253 232.401 342.503 229.938 338.981 229.117C335.461 228.296 331.47 227.71 330.179 227.71Z" fill="white"/>
</svg>
