<svg width="512" height="512" viewBox="0 0 512 512" fill="none" xmlns="http://www.w3.org/2000/svg">
<path d="M337.621 22C343.304 22 350.33 22.6197 354.153 23.5498C357.872 24.3766 363.142 26.3404 366.035 27.8906C368.928 29.4412 393.517 46.2869 420.69 65.3027C447.863 84.3189 472.246 101.682 474.622 103.853C477.515 106.23 479.582 109.123 480.202 111.5C481.028 114.188 481.235 168.242 480.718 449.243L477.619 455.444C475.552 459.578 473.176 462.575 470.386 464.539C468.113 466.089 463.67 468.052 460.571 468.879C456.643 470.016 408.187 473.323 300.944 479.73C216.222 484.898 143.279 489.032 138.733 489.032C134.187 489.032 128.091 488.412 125.301 487.585C122.408 486.758 118.276 484.692 116.003 483.038C113.524 481.281 99.4716 464.125 80.2543 439.321C62.8968 416.998 46.7793 396.018 44.5063 392.918C42.13 389.818 38.6168 384.031 36.6537 380C34.6907 375.97 32.5215 369.975 31.7982 366.564C30.9717 362.017 30.765 319.954 31.2816 63.7529L33.8646 58.1719C35.3111 54.9681 38.2042 51.0407 40.5805 49.0771C42.8535 47.1136 46.9865 44.8404 49.8793 44.0137C53.4975 42.8767 95.8583 39.3623 191.425 32.2314C266.434 26.6507 332.248 22.1034 337.621 22ZM445.074 130.93C442.387 128.656 441.044 128.346 434.535 128.449C430.398 128.553 361.486 132.48 281.313 137.131C164.666 144.055 134.91 146.019 131.707 147.362C129.435 148.396 127.162 150.359 126.128 152.322C124.372 155.526 124.269 164.724 124.062 296.804C123.855 398.704 124.062 439.011 124.888 442.009C125.611 444.282 127.265 447.383 128.815 448.83C130.261 450.38 133.568 452.137 136.151 452.86C140.078 453.997 162.088 452.964 287.512 445.729C368.204 441.079 436.084 436.738 438.358 436.118C440.631 435.498 443.731 433.844 445.177 432.294C446.727 430.847 448.38 427.746 449.103 425.473C449.929 422.473 450.24 382.27 450.24 281.302C450.24 191.802 449.826 139.817 449.206 137.337C448.587 135.27 446.83 132.377 445.074 130.93ZM336.072 47.8369C334.409 47.941 275.727 52.1786 205.89 57.2422C103.915 64.6833 78.0847 66.8537 75.1918 68.1973C72.8158 69.3341 71.4726 70.7808 71.266 72.2275C71.0594 74.1912 74.9861 77.7046 93.0668 91.8633C105.052 101.268 117.037 110.054 119.62 111.19C123.752 113.154 126.025 113.36 141.316 113.257C150.718 113.153 216.532 109.536 287.512 105.195C358.595 100.855 416.867 97.0307 417.177 96.7207C417.487 96.4105 417.178 95.3773 416.558 94.4473C415.938 93.5171 404.159 84.4223 390.211 74.3975C376.367 64.2693 362.212 54.6585 358.802 53.0049C355.393 51.3513 349.607 49.4912 345.887 48.8711C342.168 48.251 337.725 47.8369 336.072 47.8369Z" fill="black"/>
<path d="M338.862 182.603C340.722 182.293 356.013 181.157 372.751 180.123C389.488 179.09 403.54 178.16 403.953 178.056C404.469 178.056 404.779 180.33 404.779 183.12C404.779 186.014 404.159 189.424 403.436 190.871C402.816 192.318 401.06 193.972 399.613 194.489C398.167 195.005 394.654 195.935 391.865 196.556C389.075 197.176 385.665 197.796 382.049 198.623L382.153 398.602L374.61 402.116C370.478 403.976 363.865 406.25 359.836 407.077C355.393 408.007 350.33 408.42 346.714 408.007C343.408 407.697 338.862 406.457 336.589 405.32C334.316 404.183 330.183 400.566 327.29 397.362C324.501 394.055 302.184 360.26 277.801 322.124C253.417 283.988 232.96 252.777 232.34 252.57C231.514 252.467 231.204 270.14 231.204 318.507C231.204 370.388 231.514 384.753 232.444 385.373C233.167 385.787 239.573 387.337 246.702 388.991C253.831 390.541 259.72 391.988 259.926 392.091C260.133 392.298 259.823 394.158 259.203 396.225C258.48 398.705 256.62 401.289 254.141 403.253C251.868 405.113 248.251 406.767 245.152 407.283C242.362 407.8 225.625 409.04 207.957 410.074C188.74 411.107 175.308 411.417 174.482 410.901C173.449 410.28 173.242 408.937 173.759 406.353C174.068 404.39 175.412 401.702 176.755 400.359C177.995 399.015 182.231 397.052 186.26 395.915C190.186 394.778 194.319 393.641 195.249 393.331C197.005 392.918 197.109 387.75 197.109 214.125L194.732 213.608C193.492 213.401 188.43 212.988 174.378 212.058V207.2C174.378 203.687 175.102 201.103 176.755 198.623C178.098 196.659 180.888 194.179 182.954 193.248C185.95 191.802 194.319 190.871 221.595 189.011C242.466 187.564 256.93 186.944 257.55 187.461C258.17 187.978 278.834 219.189 303.527 256.704C328.22 294.323 349.091 325.225 349.71 325.431C350.744 325.638 351.054 313.029 351.054 264.766C351.054 225.183 350.64 203.583 350.02 203.273C349.4 202.963 344.028 202.136 338.035 201.516C329.977 200.483 326.877 199.759 326.464 198.623C326.154 197.796 326.464 195.419 327.084 193.455C327.704 191.491 329.873 188.288 331.836 186.531C333.903 184.67 337.106 182.914 338.862 182.603Z" fill="black"/>
</svg>
