<svg width="512" height="512" viewBox="0 0 512 512" fill="none" xmlns="http://www.w3.org/2000/svg">
<path fill-rule="evenodd" clip-rule="evenodd" d="M102.655 31H164.442C217.582 31 226.589 31.1802 228.931 32.3514C230.462 33.0721 232.263 35.0541 233.074 36.6757C234.335 39.1081 234.515 42.5315 234.245 76.4955L252.078 76.2253C261.896 76.0451 273.785 76.3154 278.468 76.8559C283.152 77.3964 291.708 78.8379 297.382 80.009C303.057 81.1802 312.424 83.7027 318.098 85.5045C323.772 87.3964 333.14 91 338.814 93.5226C344.488 96.0451 353.225 100.64 358.178 103.523C363.132 106.496 371.238 111.901 376.192 115.595C381.146 119.288 389.972 127.036 395.917 132.712C401.771 138.478 409.247 146.586 412.67 150.82C416.002 155.054 421.226 162.351 424.379 167.036C427.441 171.721 432.755 181.27 436.087 188.207C439.51 195.144 443.653 205.054 445.454 210.279C447.166 215.505 449.688 223.973 450.859 229.198C452.119 234.424 453.741 243.433 454.551 249.198C455.272 255.144 455.902 266.586 455.902 275.144C455.902 283.703 455.272 295.144 454.551 301C453.741 306.856 452.119 315.865 450.859 321.09C449.688 326.316 447.166 334.784 445.454 340.009C443.653 345.234 439.51 355.144 436.087 362.081C432.755 369.018 427.441 378.568 424.379 383.253C421.316 387.937 416.543 394.514 413.931 397.847C411.229 401.271 409.067 404.153 409.067 404.424C409.067 404.694 417.713 404.604 447.346 403.703L450.318 406.316C452.75 408.388 453.471 409.829 453.741 412.982C454.101 416.045 453.741 417.757 452.48 419.739C451.489 421.18 445.905 427.937 440.05 434.694C434.106 441.451 423.478 453.703 416.272 461.991C409.067 470.19 402.222 477.397 400.961 477.847C399.61 478.388 337.553 479.289 248.025 480.099C165.253 480.82 96.7108 481.181 95.9002 480.91C94.9995 480.55 93.3783 479.469 92.2074 478.388C91.1266 477.307 89.9557 475.235 89.6855 473.793C89.3252 472.352 89.3252 470.009 89.6855 468.568C90.0457 467.036 96.8008 459.289 108.239 447.397C118.057 437.126 126.163 428.568 126.253 428.298C126.253 428.027 121.57 423.162 115.805 417.487C110.131 411.811 102.655 403.703 99.2327 399.469C95.9002 395.235 90.6762 387.937 87.5238 383.253C84.4615 378.568 79.1475 369.018 75.815 362.081C72.3924 355.144 68.2493 345.234 66.4479 340.009C64.7366 334.784 62.2147 326.316 61.0438 321.09C59.7829 315.865 58.1616 306.856 57.351 301C56.6305 295.144 56 283.703 56 275.144C56 266.586 56.6305 255.144 57.351 249.198C58.1616 243.433 59.7829 234.424 61.0438 229.198C62.2147 223.973 64.7366 215.505 66.4479 210.279C68.2493 205.054 72.3924 195.144 75.815 188.207C79.1475 181.27 84.4615 171.721 87.5238 167.036C90.6762 162.351 95.9002 155.054 99.2327 150.82C102.655 146.586 110.131 138.478 126.343 122.442L126.253 81.4505L113.463 65.8649C106.438 57.3964 99.683 48.9279 98.6022 47.2162C97.1611 45.1442 96.5306 42.8919 96.6207 40.5496C96.7108 38.027 97.4313 36.4054 99.683 34.0631L102.655 31ZM234.605 100.64C234.245 101.09 233.164 170.64 232.353 255.144C231.453 339.739 231.092 409.199 231.453 409.469C231.813 409.739 264.147 409.108 303.237 407.847L374.391 405.775C379.254 401.18 383.217 397.217 386.19 394.063C389.252 390.82 394.026 385.144 396.908 381.451C399.7 377.757 404.203 371.271 406.815 367.036C409.337 362.802 412.76 356.946 414.291 353.973C415.732 351 418.704 344.334 420.776 339.108C422.847 333.883 425.639 325.144 427.081 319.739C428.522 314.243 430.323 305.325 431.134 299.919C432.034 293.793 432.575 284.334 432.575 275.144C432.575 265.955 432.034 256.496 431.134 250.37C430.323 244.874 428.522 235.955 427.081 230.55C425.639 225.054 422.847 216.406 420.776 211.18C418.704 205.955 415.732 199.288 414.291 196.315C412.76 193.342 409.337 187.487 406.815 183.252C404.203 179.018 399.52 172.351 396.547 168.387C393.485 164.424 387.27 157.397 382.677 152.712C378.174 148.117 371.599 141.991 368.086 139.108C364.573 136.225 358.088 131.451 353.675 128.478C349.262 125.505 341.156 120.82 335.661 118.117C330.167 115.414 321.881 111.721 317.197 110.009C312.514 108.207 304.588 105.775 299.634 104.514C294.68 103.342 286.214 101.631 280.72 100.91C275.226 100.189 266.939 99.4685 262.256 99.2883C257.572 99.1082 249.556 99.1983 244.513 99.4685C239.559 99.7388 235.055 100.279 234.605 100.64V100.64ZM111.392 173.883C108.42 178.027 104.096 184.784 101.755 188.838C99.4128 192.982 95.8101 200.189 93.7385 204.874C91.667 209.559 88.8749 217.036 87.3437 221.541C85.9026 225.955 83.741 234.694 82.48 240.91C81.2191 247.126 79.868 257.216 79.5078 263.433C79.1475 269.649 79.1475 280.009 79.5078 286.406C79.868 292.802 81.2191 303.162 82.48 309.379C83.741 315.595 85.9026 324.243 87.4338 328.748C88.8749 333.162 91.4868 340.28 93.2882 344.514C95.0896 348.748 98.6022 355.865 101.214 360.46C103.826 365.054 108.51 372.352 111.572 376.676C114.634 381 119.138 386.856 121.66 389.559L126.163 394.514C126.253 384.694 126.253 331.18 126.253 269.288C126.163 207.306 126.073 156.586 125.893 156.406C125.803 156.225 123.641 158.387 121.209 161.18C118.777 163.973 114.364 169.649 111.392 173.883V173.883Z" fill="black"/>
</svg>
